<svg width="1244" height="109" viewBox="0 0 1244 109" fill="none" xmlns="http://www.w3.org/2000/svg">
<path fill-rule="evenodd" clip-rule="evenodd" d="M1211.23 25.4613H1242.56V3.28174L1183.41 3.28174V92H1242.56V69.8204H1211.23V57.2896H1238.8V36.3631H1211.23V25.4613ZM1212.23 35.3631H1239.8V58.2896H1212.23V68.8204H1243.56V93H1182.41V2.28174L1243.56 2.28174V26.4613H1212.23V35.3631Z" fill="#565656"/>
<path fill-rule="evenodd" clip-rule="evenodd" d="M1155.32 8.9206C1148.39 5.16136 1140.28 3.28174 1131.01 3.28174L1094.05 3.28174V92H1131.01C1140.28 92 1148.39 90.0786 1155.32 86.2358C1162.34 82.3095 1167.73 76.963 1171.49 70.1963C1175.25 63.4297 1177.13 55.8277 1177.13 47.3902C1177.13 38.8693 1175.25 31.2672 1171.49 24.5841C1167.73 17.901 1162.34 12.6799 1155.32 8.9206ZM1155.8 8.03997C1148.69 4.18953 1140.42 2.28174 1131.01 2.28174L1093.05 2.28174V93H1131.01C1140.43 93 1148.7 91.0484 1155.81 87.1105L1155.81 87.1085C1162.98 83.0952 1168.51 77.6175 1172.36 70.682C1176.21 63.7536 1178.13 55.9819 1178.13 47.3902C1178.13 38.7171 1176.21 30.9428 1172.36 24.0939C1168.5 17.2389 1162.97 11.8853 1155.8 8.03997ZM1143.42 62.0513C1139.74 65.4764 1134.77 67.1889 1128.51 67.1889H1121.86V27.5915H1128.51C1134.77 27.5915 1139.74 29.3041 1143.42 32.7292C1147.09 36.1543 1148.93 41.0413 1148.93 47.3902C1148.93 53.7392 1147.09 58.6262 1143.42 62.0513ZM1122.86 28.5915H1128.51C1134.58 28.5915 1139.29 30.2481 1142.74 33.4608C1146.16 36.6495 1147.93 41.2409 1147.93 47.3902C1147.93 53.5396 1146.16 58.131 1142.74 61.3197C1139.29 64.5324 1134.58 66.1889 1128.51 66.1889H1122.86V28.5915Z" fill="#565656"/>
<path fill-rule="evenodd" clip-rule="evenodd" d="M1085.24 3.28174L1057.42 3.28174V92H1085.24V3.28174ZM1086.24 2.28174V93H1056.42V2.28174L1086.24 2.28174Z" fill="#565656"/>
<path fill-rule="evenodd" clip-rule="evenodd" d="M1021.85 92H1052.42L1033.12 58.0415C1033.45 57.9359 1033.77 57.8268 1034.09 57.7141C1039.8 55.6855 1044.2 52.4949 1047.28 48.1421C1050.62 43.5475 1052.29 38.2845 1052.29 32.3533C1052.29 26.8397 1051 21.9109 1048.41 17.5669C1045.9 13.1393 1042.1 9.67246 1037.01 7.16629C1031.91 4.57659 1025.77 3.28174 1018.59 3.28174L977.235 3.28174V92H1005.05V60.1717H1005.18L1021.85 92ZM1006.05 63.998L1021.24 93H1054.14L1034.59 58.5966C1040.38 56.5073 1044.9 53.2252 1048.09 48.7277C1051.56 43.9549 1053.29 38.4848 1053.29 32.3533C1053.29 26.6809 1051.96 21.576 1049.28 17.066C1046.66 12.4491 1042.7 8.85418 1037.45 6.27174C1032.19 3.5968 1025.89 2.28174 1018.59 2.28174L976.235 2.28174V93H1006.05V63.998ZM1016.08 41.6261H1005.05V26.5891H1016.08C1018.67 26.5891 1020.63 27.2574 1021.97 28.594C1023.39 29.9306 1024.1 31.7685 1024.1 34.1076C1024.1 36.6973 1023.43 38.6187 1022.1 39.8718C1020.76 41.0413 1018.75 41.6261 1016.08 41.6261ZM1021.42 39.13C1020.34 40.0697 1018.62 40.6261 1016.08 40.6261H1006.05V27.5891H1016.08C1018.51 27.5891 1020.17 28.2127 1021.26 29.3011L1021.27 29.3118L1021.28 29.3222C1022.46 30.4327 1023.1 31.9848 1023.1 34.1076C1023.1 36.5277 1022.48 38.1323 1021.42 39.13Z" fill="#565656"/>
<path fill-rule="evenodd" clip-rule="evenodd" d="M968.287 49.0192C970.876 44.4246 972.171 39.3287 972.171 33.7316C972.171 24.4588 969.247 17.0656 963.4 11.5521C957.635 6.03852 949.323 3.28174 938.463 3.28174L899.618 3.28174V92H927.436V63.8056H938.463C945.648 63.8056 951.746 62.469 956.758 59.7958C961.854 57.1225 965.697 53.5304 968.287 49.0192ZM957.226 60.6798C952.036 63.447 945.768 64.8056 938.463 64.8056H928.436V93H898.618V2.28174L938.463 2.28174C949.483 2.28174 958.078 5.08037 964.087 10.8255C970.166 16.5575 973.171 24.2301 973.171 33.7316C973.171 39.4899 971.837 44.7565 969.158 49.5103L969.154 49.5171C966.46 54.2095 962.47 57.9281 957.226 60.6798ZM943.977 33.7316C943.977 39.1617 941.095 41.8767 935.331 41.8767H927.436V25.5866H935.331C941.095 25.5866 943.977 28.3016 943.977 33.7316ZM928.436 26.5866V40.8767H935.331C938.073 40.8767 939.944 40.2297 941.13 39.1125C942.304 38.0059 942.977 36.2767 942.977 33.7316C942.977 31.1865 942.304 29.4574 941.13 28.3508C939.944 27.2336 938.073 26.5866 935.331 26.5866H928.436Z" fill="#565656"/>
<path fill-rule="evenodd" clip-rule="evenodd" d="M879.519 3.28174L848.192 3.28174L834.033 34.7341L819.873 3.28174L788.044 3.28174L819.873 65.0587V92H847.691V65.0587L879.519 3.28174ZM848.691 65.3012L881.16 2.28174L847.546 2.28174L834.033 32.2982L820.519 2.28174L786.404 2.28174L818.873 65.3012V93H848.691V65.3012Z" fill="#565656"/>
<path fill-rule="evenodd" clip-rule="evenodd" d="M785.517 3.28174L751.558 3.28174L732.511 56.5378L712.963 3.28174L678.879 3.28174V92H706.698V47.7662L720.356 92H744.165L757.824 47.7662V92H785.517V3.28174ZM756.824 54.394V93H786.517V2.28174L750.854 2.28174L732.499 53.6024L713.661 2.28174L677.879 2.28174V93H707.698V54.3942L719.619 93H744.903L756.824 54.394Z" fill="#565656"/>
<path fill-rule="evenodd" clip-rule="evenodd" d="M652.099 69.8203H627.538L621.649 107.037H639.192L652.099 69.8203ZM653.504 68.8203L639.904 108.037H620.478L626.684 68.8203H653.504Z" fill="#565656"/>
<path fill-rule="evenodd" clip-rule="evenodd" d="M585.073 92H618.155L585.575 45.7612L616.15 3.28174L584.697 3.28174L559.26 40.6236V3.28174L531.441 3.28174V92H559.26V53.5304L585.073 92ZM560.26 56.8154L584.54 93H620.083L586.802 45.7674L618.102 2.28174L584.169 2.28174L560.26 37.3794V2.28174L530.441 2.28174V93H560.26V56.8154Z" fill="#565656"/>
<path fill-rule="evenodd" clip-rule="evenodd" d="M495.864 92H526.439L507.141 58.0415C507.467 57.9359 507.788 57.8268 508.106 57.714C513.816 55.6855 518.215 52.4949 521.301 48.1421C524.643 43.5475 526.314 38.2845 526.314 32.3533C526.314 26.8397 525.019 21.9109 522.429 17.5669C519.923 13.1393 516.122 9.67246 511.026 7.16629C505.93 4.57659 499.79 3.28174 492.606 3.28174L451.254 3.28174V92H479.072V60.1717H479.198L495.864 92ZM480.072 63.9979L495.258 93H528.157L508.607 58.5966C514.401 56.5068 518.923 53.2235 522.114 48.7242C525.583 43.9522 527.314 38.4833 527.314 32.3533C527.314 26.6809 525.98 21.576 523.295 17.066C520.679 12.4497 516.723 8.85508 511.475 6.2727C506.208 3.59711 499.906 2.28174 492.606 2.28174L450.254 2.28174V93H480.072V63.9979ZM490.099 41.6261H479.072V26.5891H490.099C492.689 26.5891 494.652 27.2574 495.989 28.594C497.409 29.9306 498.119 31.7685 498.119 34.1076C498.119 36.6973 497.451 38.6187 496.114 39.8718C494.778 41.0413 492.773 41.6261 490.099 41.6261ZM495.443 39.1306C494.36 40.07 492.639 40.6261 490.099 40.6261H480.072V27.5891H490.099C492.524 27.5891 494.193 28.2127 495.282 29.3011L495.293 29.3118L495.304 29.3222C496.483 30.4327 497.119 31.9848 497.119 34.1076C497.119 36.5282 496.498 38.133 495.443 39.1306Z" fill="#565656"/>
<path fill-rule="evenodd" clip-rule="evenodd" d="M375.945 87.8604L375.941 87.8579C368.853 83.8443 363.213 78.2888 359.032 71.206C354.84 64.1062 352.753 56.1172 352.753 47.265C352.753 38.4127 354.84 30.4238 359.032 23.324C363.214 16.2398 368.856 10.7243 375.947 6.7938C383.119 2.78139 390.973 0.778076 399.49 0.778076C408.007 0.778076 415.82 2.78101 422.91 6.79505C430.001 10.7255 435.601 16.2413 439.7 23.3264C443.89 30.4257 445.977 38.4137 445.977 47.265C445.977 56.1161 443.89 64.1042 439.7 71.2033C435.6 78.2908 429.957 83.8471 422.786 87.86C415.697 91.8733 407.925 93.8772 399.49 93.8772C390.973 93.8772 383.118 91.8735 375.945 87.8604ZM422.297 86.9877C429.314 83.0614 434.827 77.6314 438.837 70.6976C442.931 63.7639 444.977 55.953 444.977 47.265C444.977 38.5769 442.931 30.7661 438.837 23.8323C434.827 16.8986 429.356 11.5104 422.422 7.66756C415.488 3.74124 407.844 1.77808 399.49 1.77808C391.137 1.77808 383.451 3.74124 376.434 7.66756C369.5 11.5104 363.986 16.8986 359.893 23.8323C355.8 30.7661 353.753 38.5769 353.753 47.265C353.753 55.953 355.8 63.7639 359.893 70.6976C363.986 77.6314 369.5 83.0614 376.434 86.9877C383.451 90.914 391.137 92.8772 399.49 92.8772C407.761 92.8772 415.363 90.914 422.297 86.9877ZM411.513 33.5053L411.505 33.4965C408.722 30.1723 404.766 28.4663 399.49 28.4663C394.126 28.4663 390.13 30.1759 387.35 33.4965L387.343 33.5054C384.535 36.7815 383.073 41.328 383.073 47.265C383.073 53.1105 384.531 57.6634 387.347 61.0291C390.124 64.2665 394.12 65.9384 399.49 65.9384C404.772 65.9384 408.728 64.2701 411.509 61.0293C414.324 57.6635 415.783 53.1105 415.783 47.265C415.783 41.328 414.321 36.7815 411.513 33.5053ZM412.272 61.6754C409.264 65.1841 405.004 66.9384 399.49 66.9384C393.893 66.9384 389.591 65.1841 386.584 61.6754C383.576 58.0833 382.073 53.2798 382.073 47.265C382.073 41.1666 383.576 36.3632 386.584 32.8545C389.591 29.2624 393.893 27.4663 399.49 27.4663C405.004 27.4663 409.264 29.2624 412.272 32.8545C415.279 36.3632 416.783 41.1666 416.783 47.265C416.783 53.2798 415.279 58.0833 412.272 61.6754Z" fill="#565656"/>
<path fill-rule="evenodd" clip-rule="evenodd" d="M350.043 3.28174L320.094 3.28174L312.075 59.1692L300.045 3.28174H269.72L257.691 59.1692L249.671 3.28174L219.722 3.28174L240.022 92H274.607L284.883 41.6261L295.158 92H329.743L350.043 3.28174ZM284.883 46.6294L294.341 93H330.54L351.298 2.28174L319.228 2.28174L311.878 53.5018L300.853 2.28174L268.913 2.28174L257.888 53.5018L250.538 2.28174L218.468 2.28174L239.225 93H275.424L284.883 46.6294Z" fill="#565656"/>
<path fill-rule="evenodd" clip-rule="evenodd" d="M202.13 3.28174L170.803 3.28174L156.643 34.7341L142.484 3.28174L110.655 3.28174L142.484 65.0587V92H170.302V65.0587L202.13 3.28174ZM171.302 65.3012L203.77 2.28174L170.157 2.28174L156.643 32.2982L143.13 2.28174L109.015 2.28174L141.484 65.3012V93H171.302V65.3012Z" fill="#565656"/>
<path fill-rule="evenodd" clip-rule="evenodd" d="M108.128 3.28174L74.169 3.28174L55.1222 56.5378L35.5741 3.28174L1.49023 3.28174L1.49023 92H29.3087V47.7662L42.9673 92H66.7758L80.4344 47.7662V92H108.128V3.28174ZM79.4344 54.3941V93H109.128V2.28174L73.4647 2.28174L55.11 53.6024L36.2723 2.28174L0.490234 2.28174L0.490234 93H30.3087V54.3941L42.2295 93H67.5137L79.4344 54.3941Z" fill="#565656"/>
</svg>
