<svg width="178" height="178" viewBox="0 0 178 178" fill="none" xmlns="http://www.w3.org/2000/svg">
<path d="M96.2682 10.7715L95.0441 0L96.7928 0.260075L97.7109 9.55777L97.2737 9.49275L101.077 0.910264L102.804 1.17034L103.81 10.4897L103.372 10.4247L107.11 1.8422L108.859 2.10228L104.378 12.0068L102.52 11.7251L101.493 2.53573L101.973 2.60075L98.1262 11.0532L96.2682 10.7715Z" fill="#E5E5E0"/>
<path d="M108.051 12.9172L111.111 2.9043L117.756 4.89821L117.319 6.30695L112.269 4.78984L111.395 7.67235L116.16 9.10276L115.723 10.5115L110.958 9.10276L110.062 12.0069L115.111 13.524L114.674 14.9328L108.051 12.9172Z" fill="#E5E5E0"/>
<path d="M115.898 15.3663L120.073 5.76514L124.16 7.52065C124.773 7.78072 125.253 8.10581 125.603 8.5176C125.953 8.92939 126.15 9.36285 126.215 9.86132C126.281 10.3598 126.193 10.8583 125.953 11.4001C125.756 11.8552 125.45 12.2237 125.057 12.5054C124.641 12.7872 124.139 12.9389 123.548 12.9606L123.833 12.3104C124.204 12.6788 124.467 13.0472 124.62 13.4157C124.773 13.8058 124.86 14.1742 124.838 14.5644C124.816 14.9545 124.729 15.3229 124.576 15.6697C124.182 16.5799 123.57 17.1434 122.762 17.4252C121.953 17.6853 121.013 17.5986 119.964 17.1434L115.898 15.3663ZM118.018 14.651L120.685 15.7997C121.188 16.0164 121.669 16.0598 122.106 15.9081C122.543 15.7564 122.849 15.4529 123.046 14.9978C123.242 14.5427 123.264 14.0875 123.068 13.6758C122.893 13.264 122.543 12.9389 122.018 12.7222L119.351 11.5735L118.018 14.651ZM119.942 10.2298L122.521 11.3351C122.936 11.5085 123.33 11.5301 123.68 11.4001C124.029 11.2701 124.292 11.01 124.467 10.6415C124.641 10.2514 124.641 9.90467 124.488 9.57958C124.335 9.25448 124.051 9.01608 123.636 8.82102L121.056 7.7157L119.942 10.2298Z" fill="#E5E5E0"/>
<path d="M126.674 20.3076L132.292 11.4651L135.221 13.2856C136.139 13.8708 136.839 14.5426 137.276 15.3445C137.713 16.1464 137.932 16.9917 137.888 17.8803C137.845 18.7689 137.538 19.6575 136.992 20.5461C136.446 21.413 135.768 22.0632 134.959 22.4966C134.15 22.9301 133.298 23.1251 132.38 23.0601C131.462 23.0168 130.544 22.6917 129.604 22.1065L126.674 20.3076ZM128.882 19.9392L130.412 20.8928C131.046 21.2829 131.68 21.4997 132.292 21.5213C132.926 21.543 133.516 21.413 134.063 21.0879C134.609 20.7628 135.112 20.286 135.527 19.6358C135.943 18.9856 136.161 18.3571 136.205 17.7069C136.249 17.0784 136.118 16.4932 135.833 15.9297C135.527 15.3879 135.068 14.9111 134.434 14.521L132.904 13.5674L128.882 19.9392Z" fill="#E5E5E0"/>
<path d="M135.2 25.8341L141.823 17.6851L147.222 21.998L146.282 23.1466L142.173 19.874L140.271 22.2147L144.162 25.3139L143.222 26.4626L139.331 23.3634L137.407 25.7257L141.517 28.9983L140.577 30.147L135.2 25.8341Z" fill="#E5E5E0"/>
<path d="M144.052 33.7233C143.571 33.2465 143.222 32.7264 143.003 32.1629C142.785 31.5994 142.675 31.0142 142.697 30.429C142.719 29.8439 142.872 29.2804 143.156 28.7602L144.577 29.3454C144.293 29.9739 144.205 30.6024 144.315 31.1876C144.424 31.7728 144.686 32.2929 145.145 32.748C145.408 33.0081 145.692 33.2032 145.976 33.3115C146.26 33.4199 146.522 33.4633 146.785 33.4199C147.047 33.3766 147.288 33.2465 147.484 33.0515C147.747 32.7914 147.9 32.488 147.9 32.1845C147.9 31.8595 147.812 31.5344 147.594 31.1442L146.632 29.302C146.238 28.5652 146.085 27.8933 146.151 27.2431C146.216 26.5929 146.501 26.0294 146.982 25.5526C147.397 25.1408 147.856 24.8808 148.38 24.7724C148.905 24.664 149.43 24.6857 149.976 24.8808C150.523 25.0541 151.025 25.3792 151.506 25.856C151.944 26.2895 152.271 26.788 152.49 27.3081C152.709 27.8283 152.796 28.3484 152.796 28.8903C152.774 29.4321 152.665 29.9306 152.424 30.4074L151.025 29.8439C151.266 29.302 151.331 28.7819 151.244 28.2617C151.157 27.7416 150.894 27.2865 150.479 26.8963C150.239 26.6579 149.976 26.4846 149.714 26.3762C149.452 26.2678 149.189 26.2462 148.927 26.2895C148.665 26.3329 148.446 26.4629 148.227 26.6796C147.987 26.918 147.856 27.1998 147.812 27.5465C147.768 27.8933 147.878 28.2617 148.074 28.6519L148.971 30.364C149.386 31.1226 149.583 31.8378 149.539 32.4663C149.495 33.0948 149.233 33.6583 148.73 34.1568C148.315 34.5686 147.834 34.8286 147.309 34.9153C146.763 35.0237 146.216 34.9804 145.648 34.7853C145.102 34.5686 144.555 34.2218 144.052 33.7233Z" fill="#E5E5E0"/>
<path d="M147.768 37.4291L155.791 30.6455L156.884 31.9025L148.861 38.6862L147.768 37.4291Z" fill="#E5E5E0"/>
<path d="M152.884 44.213C152.446 43.6062 152.162 42.956 152.009 42.2841C151.856 41.6123 151.856 40.9404 151.987 40.2902C152.119 39.64 152.381 39.0115 152.752 38.4047C153.146 37.8195 153.671 37.2994 154.304 36.8442C154.938 36.3891 155.616 36.0857 156.316 35.9123C157.015 35.7389 157.693 35.7172 158.348 35.8039C159.004 35.9123 159.638 36.129 160.228 36.4975C160.819 36.8659 161.321 37.3427 161.758 37.9712C162.174 38.5781 162.458 39.1849 162.589 39.8134C162.72 40.4419 162.742 41.0488 162.633 41.6123C162.524 42.1758 162.327 42.6742 162.043 43.086L160.6 42.2841C160.95 41.764 161.103 41.2222 161.103 40.6153C161.103 40.0085 160.906 39.4233 160.491 38.8598C160.097 38.2963 159.594 37.8845 159.026 37.6461C158.436 37.4077 157.824 37.321 157.19 37.4077C156.534 37.4944 155.9 37.7762 155.266 38.2096C154.632 38.6648 154.151 39.1632 153.845 39.7484C153.539 40.3336 153.408 40.9404 153.452 41.5689C153.496 42.1974 153.714 42.7826 154.13 43.3461C154.457 43.8229 154.873 44.1914 155.354 44.4514C155.835 44.7115 156.337 44.8199 156.862 44.8199C157.387 44.7982 157.889 44.6248 158.348 44.2997L158.96 43.8879L158.851 44.8849L156.556 41.6556L157.715 40.8537L160.534 44.8199L159.726 45.3834C159.092 45.8168 158.458 46.1202 157.802 46.2503C157.146 46.3803 156.512 46.3803 155.9 46.2503C155.288 46.1202 154.742 45.8818 154.217 45.5351C153.692 45.145 153.255 44.7115 152.884 44.213Z" fill="#E5E5E0"/>
<path d="M156.49 49.2411L165.846 44.4297L166.458 45.6217L161.933 54.551L161.54 54.0308L168.885 50.2597L169.65 51.7335L160.294 56.5449L159.682 55.3529L164.272 46.4236L164.644 46.9221L157.256 50.7148L156.49 49.2411Z" fill="#E5E5E0"/>
<path d="M166.895 80.7535L177.279 77.3508L177.366 79.1063L168.36 81.9021L168.338 81.4687L177.585 83.4193L177.672 85.1531L168.688 88.0356L168.666 87.5805L177.912 89.4443L178 91.1998L167.333 88.8592L167.245 86.9953L176.098 84.1128L176.12 84.6113L167.005 82.639L166.895 80.7535Z" fill="#E5E5E0"/>
<path d="M167.201 92.6304L177.716 93.519L177.125 100.368L175.639 100.238L176.098 95.0361L173.081 94.776L172.666 99.6958L171.18 99.5657L171.595 94.646L168.557 94.3859L168.098 99.5874L166.611 99.4573L167.201 92.6304Z" fill="#E5E5E0"/>
<path d="M166.436 100.758L176.776 102.816L175.902 107.129C175.77 107.78 175.552 108.3 175.224 108.733C174.896 109.145 174.503 109.448 174.043 109.622C173.584 109.795 173.06 109.817 172.47 109.687C171.989 109.6 171.552 109.383 171.202 109.037C170.83 108.712 170.59 108.235 170.437 107.671L171.136 107.801C170.852 108.235 170.546 108.56 170.196 108.798C169.846 109.037 169.497 109.188 169.125 109.253C168.754 109.318 168.36 109.318 167.967 109.232C167.005 109.037 166.305 108.582 165.868 107.845C165.431 107.108 165.343 106.176 165.562 105.092L166.436 100.758ZM167.551 102.665L166.983 105.482C166.874 106.024 166.939 106.479 167.18 106.869C167.42 107.259 167.792 107.498 168.273 107.606C168.754 107.715 169.213 107.628 169.584 107.368C169.956 107.108 170.196 106.696 170.306 106.154L170.874 103.337L167.551 102.665ZM172.317 103.597L171.77 106.328C171.683 106.761 171.726 107.151 171.945 107.455C172.142 107.78 172.448 107.975 172.863 108.061C173.278 108.148 173.628 108.083 173.912 107.845C174.196 107.628 174.393 107.303 174.481 106.848L175.027 104.117L172.317 103.597Z" fill="#E5E5E0"/>
<path d="M163.791 112.244L173.694 115.864L172.491 119.071C172.12 120.09 171.573 120.892 170.874 121.499C170.174 122.106 169.387 122.474 168.491 122.604C167.595 122.756 166.655 122.647 165.671 122.279C164.688 121.932 163.922 121.412 163.31 120.719C162.72 120.025 162.349 119.245 162.217 118.334C162.086 117.424 162.196 116.471 162.589 115.452L163.791 112.244ZM164.622 114.303L163.988 115.994C163.726 116.687 163.66 117.338 163.748 117.966C163.857 118.573 164.119 119.136 164.535 119.613C164.972 120.09 165.54 120.458 166.261 120.719C166.983 120.979 167.66 121.065 168.294 120.979C168.928 120.892 169.475 120.653 169.956 120.242C170.437 119.83 170.808 119.288 171.07 118.595L171.704 116.904L164.622 114.303Z" fill="#E5E5E0"/>
<path d="M160.119 121.65L169.519 126.375L166.371 132.509L165.037 131.837L167.42 127.177L164.709 125.812L162.48 130.255L161.146 129.583L163.398 125.183L160.666 123.818L158.283 128.477L156.949 127.806L160.119 121.65Z" fill="#E5E5E0"/>
<path d="M154.786 131.208L165.65 133.852L164.666 135.348L155.463 132.985L155.66 132.682L161.518 140.094L160.535 141.589L153.758 132.747L154.786 131.208Z" fill="#E5E5E0"/>
<path d="M151.069 136.604L159.201 143.28L154.764 148.568L153.627 147.636L156.993 143.605L154.654 141.698L151.485 145.512L150.348 144.58L153.518 140.766L151.157 138.837L147.79 142.825L146.654 141.893L151.069 136.604Z" fill="#E5E5E0"/>
<path d="M145.714 142.825L153.146 150.259L151.965 151.429L145.583 145.035L142.347 148.221L141.298 147.181L145.714 142.825Z" fill="#E5E5E0"/>
<path d="M136.576 150.779C137.188 150.302 137.822 149.977 138.522 149.803C139.221 149.608 139.899 149.565 140.598 149.652C141.298 149.738 141.953 149.955 142.566 150.302C143.199 150.649 143.746 151.125 144.227 151.732C144.708 152.339 145.036 152.989 145.232 153.683C145.429 154.376 145.473 155.048 145.385 155.742C145.298 156.435 145.079 157.086 144.73 157.692C144.38 158.299 143.899 158.841 143.287 159.318C142.675 159.795 142.019 160.12 141.341 160.315C140.664 160.51 139.964 160.553 139.287 160.467C138.587 160.38 137.931 160.185 137.319 159.816C136.707 159.47 136.139 158.993 135.658 158.364C135.177 157.757 134.849 157.107 134.653 156.414C134.456 155.72 134.412 155.048 134.499 154.355C134.587 153.661 134.806 153.011 135.155 152.404C135.505 151.776 135.986 151.234 136.576 150.779ZM137.516 151.971C137.079 152.296 136.751 152.686 136.511 153.119C136.27 153.553 136.117 154.008 136.073 154.506C136.03 154.983 136.073 155.482 136.226 155.959C136.379 156.435 136.62 156.912 136.97 157.346C137.297 157.779 137.691 158.126 138.128 158.386C138.565 158.646 139.024 158.819 139.527 158.884C140.008 158.949 140.511 158.928 140.97 158.798C141.451 158.668 141.91 158.429 142.347 158.104C142.784 157.779 143.112 157.389 143.352 156.955C143.593 156.522 143.746 156.067 143.79 155.568C143.833 155.07 143.79 154.593 143.637 154.116C143.484 153.64 143.243 153.184 142.915 152.751C142.566 152.317 142.172 151.971 141.735 151.711C141.298 151.451 140.839 151.277 140.358 151.212C139.877 151.147 139.396 151.169 138.893 151.299C138.412 151.429 137.953 151.646 137.516 151.971Z" fill="#E5E5E0"/>
<path d="M131.046 154.983L136.38 163.999L133.079 165.928C132.467 166.275 131.855 166.492 131.265 166.535C130.675 166.578 130.106 166.47 129.604 166.21C129.101 165.928 128.664 165.516 128.314 164.91C127.964 164.324 127.811 163.761 127.833 163.176C127.855 162.612 128.03 162.07 128.358 161.572C128.685 161.074 129.166 160.64 129.778 160.293L131.636 159.21L129.625 155.829L131.046 154.983ZM132.358 160.488L130.456 161.594C130.128 161.789 129.888 162.005 129.713 162.287C129.538 162.569 129.472 162.851 129.472 163.154C129.472 163.458 129.56 163.761 129.757 164.086C129.953 164.411 130.172 164.628 130.434 164.78C130.697 164.931 131.003 164.996 131.33 164.996C131.658 164.975 131.964 164.888 132.292 164.693L134.194 163.588L132.358 160.488Z" fill="#E5E5E0"/>
<path d="M123.418 159.405L127.505 169.049L126.063 169.656L120.27 166.167L120.991 165.863L119.527 172.387L118.084 172.993L113.996 163.349L115.527 162.72L118.849 170.544L118.215 170.631L119.789 164.151L119.942 164.086L125.626 167.554L125.188 167.922L121.866 160.098L123.418 159.405Z" fill="#E5E5E0"/>
<path d="M112.225 163.804L115.045 173.882L108.356 175.724L107.963 174.294L113.034 172.907L112.225 170.003L107.416 171.325L107.023 169.894L111.832 168.572L111.023 165.646L105.952 167.033L105.558 165.603L112.225 163.804Z" fill="#E5E5E0"/>
<path d="M104.291 165.928L105.887 176.266L104.553 176.461L97.4707 169.353L98.1047 169.157L99.3725 177.263L97.7112 177.523L96.1155 167.185L97.4489 166.99L104.509 174.164L103.919 174.359L102.651 166.21L104.291 165.928Z" fill="#E5E5E0"/>
<path d="M92.3335 167.358L92.727 176.331L95.5031 176.223L95.5687 177.696L88.3551 178L88.2896 176.526L91.0438 176.418L90.6504 167.445L92.3335 167.358Z" fill="#E5E5E0"/>
<path d="M63.2823 163.674L59.4788 173.427L56.2655 172.192C55.2381 171.802 54.4293 171.26 53.8391 170.545C53.2489 169.851 52.8773 169.049 52.768 168.161C52.6369 167.272 52.768 166.34 53.1396 165.386C53.5113 164.433 54.0577 163.653 54.7572 163.089C55.4567 162.504 56.2655 162.157 57.1836 162.049C58.1017 161.919 59.0635 162.07 60.0909 162.461L63.2823 163.674ZM61.1838 164.454L59.5007 163.804C58.8012 163.544 58.1454 163.457 57.5334 163.544C56.8994 163.631 56.353 163.891 55.8721 164.303C55.3911 164.714 54.9977 165.278 54.7135 165.993C54.4293 166.708 54.3419 167.38 54.4075 168.009C54.4949 168.637 54.7135 169.201 55.1288 169.678C55.5223 170.154 56.0688 170.545 56.7683 170.805L58.4514 171.455L61.1838 164.454Z" fill="#E5E5E0"/>
<path d="M55.0415 160.51L46.8005 168.009L44.9862 167.055L46.6694 156.089L48.2651 156.934L47.8498 159.383L51.6314 161.377L53.4676 159.686L55.0415 160.51ZM50.5166 162.439L47.6093 160.9L46.6694 166.6L46.254 166.383L50.5166 162.439Z" fill="#E5E5E0"/>
<path d="M43.0626 153.379C43.6091 153.748 44.0462 154.203 44.3741 154.723C44.702 155.243 44.8987 155.785 44.9862 156.37C45.0736 156.955 45.0299 157.519 44.855 158.082L43.3467 157.779C43.4998 157.107 43.4779 156.479 43.2812 155.915C43.0844 155.352 42.7128 154.897 42.1882 154.528C41.8822 154.311 41.5761 154.181 41.2701 154.116C40.9641 154.051 40.7018 154.073 40.4395 154.16C40.1771 154.246 39.9804 154.42 39.8274 154.636C39.6088 154.94 39.5214 155.243 39.587 155.568C39.6307 155.872 39.7837 156.197 40.0679 156.544L41.3575 158.169C41.8603 158.819 42.1445 159.47 42.2101 160.12C42.2538 160.77 42.1008 161.377 41.7073 161.919C41.3794 162.395 40.9641 162.742 40.4613 162.937C39.9586 163.154 39.4339 163.197 38.8656 163.132C38.2973 163.046 37.7289 162.829 37.1824 162.439C36.6578 162.092 36.2425 161.658 35.9583 161.203C35.6523 160.727 35.4555 160.228 35.39 159.708C35.3025 159.188 35.3463 158.668 35.4774 158.147L36.9638 158.451C36.8327 159.036 36.8545 159.556 37.0513 160.055C37.248 160.531 37.5759 160.943 38.0349 161.268C38.3191 161.463 38.6033 161.593 38.8875 161.637C39.1716 161.68 39.4339 161.658 39.6744 161.572C39.9148 161.485 40.1334 161.312 40.2864 161.073C40.4832 160.792 40.5706 160.488 40.5269 160.141C40.505 159.795 40.352 159.448 40.0679 159.101L38.8656 157.584C38.3191 156.912 38.0131 156.24 37.9256 155.612C37.8382 154.983 38.0131 154.376 38.4065 153.813C38.7344 153.336 39.1498 152.989 39.6744 152.794C40.1771 152.599 40.7236 152.534 41.3138 152.643C41.904 152.729 42.4724 152.989 43.0626 153.379Z" fill="#E5E5E0"/>
<path d="M38.7565 150.54L31.7834 158.386L30.5375 157.281L33.6196 153.835L29.9691 150.649L26.8651 154.095L25.6191 152.989L32.5922 145.144L33.8382 146.249L30.9309 149.522L34.5814 152.708L37.4887 149.435L38.7565 150.54Z" fill="#E5E5E0"/>
<path d="M31.2806 143.822L23.3894 150.757L20.4384 147.463C20.0012 146.964 19.717 146.466 19.564 145.967C19.411 145.447 19.4328 144.971 19.564 144.494C19.6952 144.017 20.0012 143.605 20.4602 143.215C20.8318 142.89 21.269 142.673 21.7499 142.586C22.2308 142.5 22.7554 142.586 23.3019 142.825L22.7554 143.302C22.5806 142.825 22.4931 142.37 22.515 141.958C22.5369 141.546 22.6243 141.178 22.7992 140.831C22.974 140.484 23.2145 140.202 23.5205 139.942C24.2637 139.292 25.0507 139.01 25.9032 139.119C26.7557 139.227 27.5645 139.704 28.3077 140.549L31.2806 143.822ZM25.4223 146.748L23.5642 144.667C23.2582 144.32 22.9303 144.147 22.5587 144.104C22.1871 144.06 21.8374 144.19 21.5313 144.472C21.2034 144.754 21.0504 145.079 21.0723 145.426C21.0723 145.794 21.2253 146.141 21.5313 146.466L23.3894 148.547L25.4223 146.748ZM29.0509 143.562L27.1273 141.416C26.7557 141.004 26.3404 140.766 25.9032 140.723C25.4441 140.679 25.0288 140.809 24.6572 141.156C24.2856 141.503 24.0889 141.893 24.067 142.348C24.067 142.803 24.2419 143.237 24.6135 143.648L26.5371 145.794L29.0509 143.562Z" fill="#E5E5E0"/>
<path d="M22.3185 132.465C22.7338 133.094 23.018 133.765 23.171 134.459C23.3021 135.153 23.324 135.846 23.171 136.518C23.0398 137.19 22.7775 137.818 22.384 138.425C21.9906 139.01 21.466 139.53 20.8102 139.964C20.1544 140.397 19.4768 140.679 18.7773 140.809C18.0778 140.939 17.3783 140.939 16.7006 140.809C16.023 140.679 15.3891 140.397 14.7989 140.007C14.2087 139.617 13.7059 139.097 13.2687 138.468C12.8316 137.84 12.5474 137.168 12.4162 136.475C12.2851 135.781 12.2851 135.109 12.3944 134.416C12.5255 133.744 12.7878 133.115 13.1813 132.508C13.5748 131.923 14.0994 131.403 14.7552 130.97C15.4109 130.536 16.0886 130.254 16.7881 130.124C17.4876 129.994 18.1871 129.994 18.8647 130.124C19.5423 130.254 20.1763 130.514 20.7883 130.926C21.3785 131.316 21.8813 131.837 22.3185 132.465ZM21.0506 133.31C20.7446 132.855 20.3949 132.508 19.9577 132.227C19.5423 131.967 19.0833 131.772 18.6024 131.707C18.1215 131.62 17.6187 131.641 17.1378 131.75C16.6351 131.858 16.1542 132.075 15.6951 132.378C15.2361 132.682 14.8645 133.029 14.5803 133.462C14.2961 133.874 14.0775 134.329 13.9682 134.806C13.8589 135.283 13.8589 135.759 13.9464 136.258C14.0338 136.735 14.2305 137.211 14.5366 137.667C14.8426 138.122 15.1924 138.468 15.6077 138.75C16.023 139.01 16.482 139.205 16.963 139.27C17.4439 139.357 17.9466 139.335 18.4494 139.227C18.9521 139.119 19.433 138.902 19.8702 138.599C20.3293 138.295 20.7227 137.927 21.0069 137.515C21.2911 137.103 21.5097 136.648 21.5971 136.171C21.7064 135.694 21.7064 135.218 21.619 134.719C21.5315 134.221 21.3348 133.744 21.0506 133.31Z" fill="#E5E5E0"/>
<path d="M19.0831 127.892L7.97864 129.214L7.06055 127.372L14.8862 119.44L15.6731 121.044L13.9025 122.777L15.8042 126.592L18.2962 126.288L19.0831 127.892ZM14.2741 126.83L12.8095 123.904L8.67813 127.979L8.4814 127.567L14.2741 126.83Z" fill="#E5E5E0"/>
<path d="M14.5801 118.551L4.63412 122.041L3.34442 118.465C3.10397 117.793 3.01654 117.186 3.08211 116.579C3.14769 115.994 3.36628 115.474 3.71603 115.019C4.08764 114.563 4.5904 114.238 5.24618 114C5.94567 113.762 6.57959 113.718 7.19165 113.892C7.80371 114.065 8.30647 114.39 8.74366 114.889L11.9351 111.204L12.569 112.981L9.09341 116.926L9.33386 115.69L10.2738 118.291L14.0117 116.969L14.5801 118.551ZM8.89667 118.79L8.15346 116.731C8.0223 116.384 7.84743 116.102 7.60698 115.885C7.36653 115.669 7.10422 115.539 6.79819 115.474C6.49216 115.409 6.16427 115.452 5.83638 115.56C5.48663 115.69 5.22432 115.864 5.00573 116.102C4.80899 116.341 4.67784 116.622 4.63412 116.926C4.5904 117.251 4.63412 117.576 4.74342 117.923L5.48663 119.982L8.89667 118.79Z" fill="#E5E5E0"/>
<path d="M11.6511 110.142L1.35538 112.418L0.612164 109.08C0.371712 108.018 0.393572 107.043 0.634023 106.176C0.896334 105.309 1.35538 104.55 2.03302 103.965C2.71065 103.358 3.56316 102.946 4.56869 102.73C5.57421 102.513 6.53602 102.513 7.41039 102.773C8.28476 103.033 9.02798 103.51 9.64003 104.182C10.2521 104.875 10.6674 105.742 10.9079 106.804L11.6511 110.142ZM9.83677 108.842L9.4433 107.086C9.29029 106.371 8.98426 105.764 8.56893 105.309C8.15361 104.854 7.62898 104.529 7.01692 104.355C6.40486 104.182 5.70537 104.182 4.96215 104.355C4.19708 104.529 3.58502 104.81 3.10412 105.222C2.62321 105.634 2.29533 106.132 2.09859 106.739C1.92372 107.346 1.90186 107.996 2.05487 108.711L2.44834 110.467L9.83677 108.842Z" fill="#E5E5E0"/>
<path d="M9.57435 77.4158L0 71.6725L0.415326 69.6569L11.498 68.2048L11.1264 69.9603L8.65626 70.2421L7.78189 74.4033L9.9241 75.682L9.57435 77.4158ZM6.42662 73.6447L7.10426 70.4371L1.31155 71.1307L1.39899 70.6755L6.42662 73.6447Z" fill="#E5E5E0"/>
<path d="M11.826 67.3163L1.8363 63.9787L3.06042 60.381C3.27901 59.7091 3.6069 59.1673 4.02223 58.7338C4.43755 58.3004 4.94032 58.0186 5.50866 57.8886C6.077 57.7585 6.68906 57.8019 7.34483 58.0186C7.97875 58.2353 8.50337 58.5604 8.85312 58.9939C9.22473 59.4274 9.44332 59.9475 9.53076 60.5327C9.6182 61.1178 9.53076 61.7464 9.31217 62.4182L8.63453 64.4555L12.3943 65.7125L11.826 67.3163ZM7.19182 64.022L7.89131 61.9414C8.00061 61.5946 8.04433 61.2479 8.00061 60.9445C7.95689 60.641 7.82574 60.3593 7.60715 60.1209C7.38855 59.8825 7.12624 59.7091 6.79835 59.6007C6.44861 59.4924 6.12072 59.449 5.81469 59.514C5.50866 59.5791 5.24635 59.7091 5.00589 59.9258C4.76544 60.1426 4.59057 60.4243 4.48127 60.7927L3.78178 62.8734L7.19182 64.022Z" fill="#E5E5E0"/>
<path d="M14.755 58.9938L5.20251 54.5725L6.8201 51.1265C7.12613 50.498 7.49774 49.9779 7.95678 49.6094C8.41582 49.2193 8.94045 49.0026 9.50879 48.9376C10.0771 48.8726 10.6892 48.9809 11.3012 49.2843C11.9133 49.5661 12.3942 49.9562 12.7002 50.433C13.0063 50.9098 13.1811 51.4516 13.203 52.0368C13.2249 52.622 13.0718 53.2505 12.7658 53.879L11.8477 55.8296L15.4326 57.4984L14.755 58.9938ZM10.5143 55.2227L11.4543 53.2288C11.6073 52.8821 11.6947 52.557 11.6729 52.2535C11.651 51.9284 11.5636 51.6467 11.3887 51.4083C11.2138 51.1482 10.9515 50.9532 10.6236 50.8015C10.2957 50.6497 9.96783 50.5847 9.6618 50.6064C9.35577 50.6281 9.0716 50.7364 8.80929 50.9315C8.54698 51.1265 8.35025 51.3866 8.17537 51.7334L7.23542 53.7273L10.5143 55.2227Z" fill="#E5E5E0"/>
<path d="M18.6242 51.0617L9.57446 45.6868L10.427 44.2563L18.2089 48.8727L20.5478 45.0149L21.8156 45.7735L18.6242 51.0617Z" fill="#E5E5E0"/>
<path d="M22.5589 44.7981L13.9026 38.8163L14.8644 37.4509L23.5207 43.4327L22.5589 44.7981Z" fill="#E5E5E0"/>
<path d="M27.8707 38.1876C27.3898 38.7511 26.8433 39.2063 26.2094 39.5097C25.5973 39.8131 24.9415 39.9865 24.2639 40.0298C23.5863 40.0732 22.9086 39.9865 22.231 39.7698C21.5534 39.553 20.9194 39.1846 20.3074 38.6644C19.7172 38.166 19.2363 37.6025 18.8865 36.9739C18.5368 36.3454 18.34 35.7169 18.2745 35.0451C18.2089 34.3732 18.2745 33.723 18.4712 33.0728C18.6679 32.4226 19.0177 31.7941 19.4986 31.2306C19.9795 30.6671 20.5041 30.2553 21.0725 29.9519C21.6408 29.6485 22.231 29.4968 22.7993 29.4534C23.3677 29.4101 23.9142 29.4751 24.3951 29.6485L23.9579 31.2306C23.3895 31.0356 22.8212 31.0139 22.231 31.1656C21.6408 31.3173 21.1162 31.6641 20.679 32.1842C20.2199 32.7044 19.9576 33.2895 19.8702 33.9181C19.7828 34.5466 19.8483 35.1534 20.1106 35.7386C20.373 36.3454 20.7883 36.8873 21.3785 37.3857C21.9687 37.8842 22.6026 38.2093 23.2365 38.361C23.8704 38.5127 24.5044 38.4911 25.0946 38.296C25.6848 38.1009 26.2094 37.7325 26.6684 37.1907C27.1275 36.6705 27.3679 36.107 27.4116 35.5002C27.4554 34.8933 27.3461 34.3298 27.04 33.8097L28.5483 33.1162C28.7888 33.5496 28.9418 34.0481 29.0074 34.6333C29.0729 35.1968 29.0074 35.8036 28.8106 36.4105C28.6795 37.039 28.3516 37.6241 27.8707 38.1876Z" fill="#E5E5E0"/>
<path d="M30.8872 34.4166L26.4717 24.2303L28.0018 22.8433L37.8822 28.0448L36.5707 29.2585L34.3847 28.0664L31.237 30.9489L32.2425 33.2246L30.8872 34.4166ZM30.5594 29.5402L32.9857 27.3296L27.8707 24.5554L28.2204 24.252L30.5594 29.5402Z" fill="#E5E5E0"/>
<path d="M39.6307 26.8311L34.1659 19.6574L31.9363 21.3262L31.04 20.1559L36.8109 15.8213L37.7071 16.9916L35.4993 18.6388L40.9641 25.8125L39.6307 26.8311Z" fill="#E5E5E0"/>
<path d="M44.112 23.6451L38.3412 14.8893L39.7402 13.979L45.511 22.7349L44.112 23.6451Z" fill="#E5E5E0"/>
<path d="M51.6973 19.3975C51.0197 19.7442 50.3202 19.961 49.6207 20.0043C48.8993 20.0693 48.2217 19.9826 47.5659 19.7876C46.9101 19.5708 46.2981 19.2457 45.7516 18.7906C45.2051 18.3355 44.746 17.772 44.3744 17.0785C44.0028 16.3849 43.8061 15.6914 43.7405 14.9762C43.6749 14.261 43.7624 13.5891 43.9591 12.9389C44.1777 12.2887 44.5056 11.6819 44.9646 11.1401C45.4237 10.5982 45.992 10.1648 46.6915 9.79635C47.3692 9.44958 48.0687 9.23285 48.79 9.16783C49.4895 9.10281 50.189 9.1895 50.8448 9.38456C51.5006 9.57962 52.1126 9.90471 52.6591 10.3815C53.2056 10.8366 53.6646 11.4218 54.0144 12.0937C54.3641 12.7655 54.5827 13.4807 54.6483 14.196C54.7139 14.9112 54.6264 15.583 54.4297 16.2332C54.2111 16.8834 53.8832 17.4902 53.4242 18.0321C52.9433 18.5956 52.3749 19.0507 51.6973 19.3975ZM50.9978 18.0537C51.4787 17.7937 51.894 17.4902 52.2001 17.1001C52.5061 16.71 52.7465 16.2982 52.8777 15.8214C53.0088 15.3446 53.0526 14.8678 53.0088 14.3693C52.9651 13.8709 52.7902 13.3724 52.5498 12.8739C52.2875 12.3971 51.9815 11.9853 51.588 11.6385C51.1945 11.3135 50.7792 11.0534 50.3202 10.9017C49.8611 10.75 49.3802 10.6849 48.8774 10.7283C48.3747 10.7716 47.8938 10.9017 47.4129 11.1617C46.932 11.4218 46.5166 11.7252 46.2106 12.1154C45.8827 12.5055 45.6641 12.9173 45.533 13.3941C45.4018 13.8709 45.3581 14.3477 45.4018 14.8461C45.4674 15.3446 45.6204 15.8431 45.8609 16.3199C46.1232 16.8184 46.4292 17.2302 46.8227 17.5553C47.2161 17.8804 47.6315 18.1404 48.0905 18.2921C48.5496 18.4439 49.0305 18.5089 49.5332 18.4655C50.036 18.4222 50.5169 18.2921 50.9978 18.0537Z" fill="#E5E5E0"/>
<path d="M57.8833 16.2331L54.3859 6.37196L55.6537 5.9385L63.9384 11.6385L63.3482 11.9419L60.6157 4.20467L62.1896 3.66284L65.6871 13.524L64.4193 13.9575L56.1783 8.19249L56.7248 7.88907L59.4572 15.6913L57.8833 16.2331Z" fill="#E5E5E0"/>
</svg>
