<svg width="178" height="178" viewBox="0 0 178 178" fill="none" xmlns="http://www.w3.org/2000/svg">
<path d="M96.2683 10.7715L95.0442 6.10352e-05L96.7929 0.260136L97.711 9.55783L97.2738 9.49281L101.077 0.910325L102.804 1.1704L103.81 10.4898L103.373 10.4247L107.11 1.84226L108.859 2.10234L104.378 12.0069L102.52 11.7251L101.493 2.5358L101.974 2.60081L98.1263 11.0533L96.2683 10.7715Z" fill="#1E1E1E"/>
<path d="M108.051 12.9171L111.111 2.90422L117.756 4.89813L117.319 6.30687L112.27 4.78977L111.395 7.67227L116.161 9.10268L115.723 10.5114L110.958 9.10268L110.062 12.0069L115.111 13.524L114.674 14.9327L108.051 12.9171Z" fill="#1E1E1E"/>
<path d="M115.898 15.3662L120.073 5.76505L124.16 7.52055C124.773 7.78063 125.253 8.10572 125.603 8.51751C125.953 8.92929 126.15 9.36275 126.215 9.86123C126.281 10.3597 126.193 10.8582 125.953 11.4C125.756 11.8551 125.45 12.2236 125.057 12.5053C124.641 12.7871 124.139 12.9388 123.548 12.9605L123.833 12.3103C124.204 12.6787 124.467 13.0472 124.62 13.4156C124.773 13.8057 124.86 14.1741 124.838 14.5643C124.816 14.9544 124.729 15.3228 124.576 15.6696C124.182 16.5798 123.57 17.1433 122.762 17.4251C121.953 17.6852 121.013 17.5985 119.964 17.1433L115.898 15.3662ZM118.018 14.651L120.685 15.7996C121.188 16.0163 121.669 16.0597 122.106 15.908C122.543 15.7563 122.849 15.4529 123.046 14.9977C123.242 14.5426 123.264 14.0875 123.068 13.6757C122.893 13.2639 122.543 12.9388 122.018 12.7221L119.351 11.5734L118.018 14.651ZM119.942 10.2297L122.521 11.335C122.936 11.5084 123.33 11.53 123.68 11.4C124.029 11.27 124.292 11.0099 124.467 10.6415C124.641 10.2513 124.641 9.90458 124.488 9.57948C124.335 9.25439 124.051 9.01599 123.636 8.82093L121.056 7.71561L119.942 10.2297Z" fill="#1E1E1E"/>
<path d="M126.675 20.3076L132.292 11.465L135.222 13.2856C136.14 13.8707 136.839 14.5426 137.276 15.3445C137.713 16.1464 137.932 16.9916 137.888 17.8802C137.845 18.7688 137.539 19.6574 136.992 20.546C136.446 21.4129 135.768 22.0631 134.959 22.4966C134.15 22.93 133.298 23.1251 132.38 23.0601C131.462 23.0167 130.544 22.6916 129.604 22.1065L126.675 20.3076ZM128.882 19.9392L130.412 20.8928C131.046 21.2829 131.68 21.4996 132.292 21.5213C132.926 21.543 133.517 21.4129 134.063 21.0878C134.609 20.7627 135.112 20.2859 135.528 19.6357C135.943 18.9856 136.161 18.357 136.205 17.7068C136.249 17.0783 136.118 16.4932 135.834 15.9297C135.528 15.3878 135.069 14.911 134.435 14.5209L132.904 13.5673L128.882 19.9392Z" fill="#1E1E1E"/>
<path d="M135.199 25.8342L141.823 17.6852L147.222 21.9981L146.282 23.1468L142.173 19.8741L140.271 22.2148L144.162 25.3141L143.222 26.4627L139.331 23.3635L137.407 25.7258L141.517 28.9985L140.577 30.1471L135.199 25.8342Z" fill="#1E1E1E"/>
<path d="M144.052 33.7232C143.571 33.2464 143.222 32.7262 143.003 32.1627C142.785 31.5992 142.675 31.014 142.697 30.4289C142.719 29.8437 142.872 29.2802 143.156 28.7601L144.577 29.3452C144.293 29.9737 144.205 30.6023 144.315 31.1874C144.424 31.7726 144.686 32.2927 145.145 32.7479C145.408 33.008 145.692 33.203 145.976 33.3114C146.26 33.4197 146.522 33.4631 146.785 33.4197C147.047 33.3764 147.288 33.2464 147.484 33.0513C147.747 32.7912 147.9 32.4878 147.9 32.1844C147.9 31.8593 147.812 31.5342 147.594 31.1441L146.632 29.3019C146.238 28.565 146.085 27.8931 146.151 27.2429C146.216 26.5928 146.501 26.0293 146.982 25.5525C147.397 25.1407 147.856 24.8806 148.38 24.7722C148.905 24.6639 149.43 24.6855 149.976 24.8806C150.523 25.054 151.025 25.3791 151.506 25.8559C151.944 26.2893 152.271 26.7878 152.49 27.308C152.709 27.8281 152.796 28.3483 152.796 28.8901C152.774 29.4319 152.665 29.9304 152.424 30.4072L151.025 29.8437C151.266 29.3019 151.331 28.7817 151.244 28.2616C151.157 27.7414 150.894 27.2863 150.479 26.8962C150.239 26.6578 149.976 26.4844 149.714 26.376C149.452 26.2677 149.189 26.246 148.927 26.2893C148.665 26.3327 148.446 26.4627 148.227 26.6795C147.987 26.9179 147.856 27.1996 147.812 27.5464C147.768 27.8931 147.878 28.2616 148.074 28.6517L148.971 30.3639C149.386 31.1224 149.583 31.8376 149.539 32.4661C149.495 33.0946 149.233 33.6581 148.73 34.1566C148.315 34.5684 147.834 34.8285 147.309 34.9152C146.763 35.0235 146.216 34.9802 145.648 34.7851C145.102 34.5684 144.555 34.2216 144.052 33.7232Z" fill="#1E1E1E"/>
<path d="M147.768 37.4292L155.791 30.6456L156.884 31.9026L148.861 38.6863L147.768 37.4292Z" fill="#1E1E1E"/>
<path d="M152.884 44.2129C152.446 43.606 152.162 42.9558 152.009 42.284C151.856 41.6121 151.856 40.9403 151.987 40.2901C152.119 39.6399 152.381 39.0114 152.752 38.4045C153.146 37.8193 153.671 37.2992 154.304 36.8441C154.938 36.3889 155.616 36.0855 156.316 35.9121C157.015 35.7387 157.693 35.7171 158.348 35.8038C159.004 35.9121 159.638 36.1289 160.228 36.4973C160.819 36.8657 161.321 37.3425 161.758 37.9711C162.174 38.5779 162.458 39.1847 162.589 39.8133C162.72 40.4418 162.742 41.0486 162.633 41.6121C162.524 42.1756 162.327 42.6741 162.043 43.0859L160.6 42.284C160.95 41.7638 161.103 41.222 161.103 40.6152C161.103 40.0083 160.906 39.4231 160.491 38.8596C160.097 38.2962 159.594 37.8844 159.026 37.646C158.436 37.4076 157.824 37.3209 157.19 37.4076C156.534 37.4943 155.9 37.776 155.266 38.2095C154.632 38.6646 154.151 39.1631 153.845 39.7482C153.539 40.3334 153.408 40.9403 153.452 41.5688C153.496 42.1973 153.714 42.7825 154.13 43.3459C154.457 43.8228 154.873 44.1912 155.354 44.4513C155.835 44.7113 156.337 44.8197 156.862 44.8197C157.387 44.798 157.889 44.6247 158.348 44.2996L158.96 43.8878L158.851 44.8847L156.556 41.6555L157.715 40.8536L160.534 44.8197L159.726 45.3832C159.092 45.8167 158.458 46.1201 157.802 46.2501C157.146 46.3802 156.512 46.3802 155.9 46.2501C155.288 46.1201 154.742 45.8817 154.217 45.5349C153.692 45.1448 153.255 44.7113 152.884 44.2129Z" fill="#1E1E1E"/>
<path d="M156.49 49.241L165.846 44.4296L166.458 45.6216L161.933 54.5509L161.54 54.0307L168.885 50.2596L169.65 51.7334L160.294 56.5448L159.682 55.3528L164.272 46.4235L164.644 46.922L157.256 50.7147L156.49 49.241Z" fill="#1E1E1E"/>
<path d="M166.896 80.7535L177.279 77.3508L177.366 79.1063L168.36 81.9021L168.338 81.4687L177.585 83.4192L177.672 85.1531L168.688 88.0356L168.666 87.5804L177.913 89.4443L178 91.1998L167.333 88.8591L167.245 86.9953L176.098 84.1128L176.12 84.6112L167.005 82.639L166.896 80.7535Z" fill="#1E1E1E"/>
<path d="M167.201 92.6303L177.716 93.5188L177.125 100.368L175.639 100.237L176.098 95.036L173.081 94.7759L172.666 99.6956L171.18 99.5656L171.595 94.6458L168.557 94.3858L168.098 99.5873L166.611 99.4572L167.201 92.6303Z" fill="#1E1E1E"/>
<path d="M166.436 100.758L176.776 102.817L175.901 107.129C175.77 107.78 175.552 108.3 175.224 108.733C174.896 109.145 174.502 109.448 174.043 109.622C173.584 109.795 173.06 109.817 172.469 109.687C171.989 109.6 171.551 109.383 171.202 109.037C170.83 108.712 170.59 108.235 170.437 107.671L171.136 107.801C170.852 108.235 170.546 108.56 170.196 108.798C169.846 109.037 169.497 109.188 169.125 109.253C168.753 109.318 168.36 109.318 167.966 109.232C167.005 109.037 166.305 108.582 165.868 107.845C165.431 107.108 165.343 106.176 165.562 105.092L166.436 100.758ZM167.551 102.665L166.983 105.482C166.874 106.024 166.939 106.479 167.18 106.869C167.42 107.259 167.792 107.498 168.273 107.606C168.753 107.715 169.212 107.628 169.584 107.368C169.956 107.108 170.196 106.696 170.305 106.154L170.874 103.337L167.551 102.665ZM172.316 103.597L171.77 106.328C171.683 106.761 171.726 107.151 171.945 107.455C172.142 107.78 172.448 107.975 172.863 108.061C173.278 108.148 173.628 108.083 173.912 107.845C174.196 107.628 174.393 107.303 174.481 106.848L175.027 104.117L172.316 103.597Z" fill="#1E1E1E"/>
<path d="M163.791 112.244L173.693 115.864L172.491 119.071C172.12 120.09 171.573 120.892 170.874 121.499C170.174 122.105 169.387 122.474 168.491 122.604C167.595 122.756 166.655 122.647 165.671 122.279C164.687 121.932 163.922 121.412 163.31 120.718C162.72 120.025 162.349 119.245 162.217 118.334C162.086 117.424 162.195 116.47 162.589 115.452L163.791 112.244ZM164.622 114.303L163.988 115.994C163.726 116.687 163.66 117.337 163.747 117.966C163.857 118.573 164.119 119.136 164.534 119.613C164.972 120.09 165.54 120.458 166.261 120.718C166.983 120.978 167.66 121.065 168.294 120.978C168.928 120.892 169.475 120.653 169.956 120.242C170.436 119.83 170.808 119.288 171.07 118.594L171.704 116.904L164.622 114.303Z" fill="#1E1E1E"/>
<path d="M160.119 121.65L169.519 126.375L166.371 132.508L165.037 131.837L167.42 127.177L164.709 125.812L162.48 130.254L161.146 129.583L163.398 125.183L160.666 123.818L158.283 128.477L156.949 127.805L160.119 121.65Z" fill="#1E1E1E"/>
<path d="M154.785 131.208L165.649 133.852L164.666 135.348L155.463 132.985L155.66 132.682L161.518 140.094L160.534 141.589L153.758 132.747L154.785 131.208Z" fill="#1E1E1E"/>
<path d="M151.069 136.605L159.201 143.28L154.764 148.568L153.627 147.636L156.993 143.605L154.654 141.698L151.485 145.512L150.348 144.58L153.518 140.766L151.157 138.837L147.79 142.825L146.654 141.893L151.069 136.605Z" fill="#1E1E1E"/>
<path d="M145.714 142.825L153.146 150.259L151.965 151.429L145.583 145.035L142.347 148.221L141.298 147.181L145.714 142.825Z" fill="#1E1E1E"/>
<path d="M136.576 150.779C137.188 150.302 137.822 149.977 138.522 149.803C139.221 149.608 139.899 149.565 140.598 149.652C141.298 149.738 141.953 149.955 142.566 150.302C143.199 150.649 143.746 151.126 144.227 151.732C144.708 152.339 145.036 152.989 145.232 153.683C145.429 154.376 145.473 155.048 145.385 155.742C145.298 156.435 145.079 157.086 144.73 157.692C144.38 158.299 143.899 158.841 143.287 159.318C142.675 159.795 142.019 160.12 141.341 160.315C140.664 160.51 139.964 160.553 139.287 160.467C138.587 160.38 137.931 160.185 137.319 159.816C136.707 159.47 136.139 158.993 135.658 158.364C135.177 157.757 134.849 157.107 134.653 156.414C134.456 155.72 134.412 155.048 134.499 154.355C134.587 153.661 134.806 153.011 135.155 152.404C135.505 151.776 135.986 151.234 136.576 150.779ZM137.516 151.971C137.079 152.296 136.751 152.686 136.511 153.119C136.27 153.553 136.117 154.008 136.073 154.507C136.03 154.983 136.073 155.482 136.226 155.959C136.379 156.435 136.62 156.912 136.97 157.346C137.297 157.779 137.691 158.126 138.128 158.386C138.565 158.646 139.024 158.819 139.527 158.884C140.008 158.949 140.511 158.928 140.97 158.798C141.451 158.668 141.91 158.429 142.347 158.104C142.784 157.779 143.112 157.389 143.352 156.956C143.593 156.522 143.746 156.067 143.79 155.568C143.833 155.07 143.79 154.593 143.637 154.116C143.484 153.64 143.243 153.184 142.915 152.751C142.566 152.318 142.172 151.971 141.735 151.711C141.298 151.451 140.839 151.277 140.358 151.212C139.877 151.147 139.396 151.169 138.893 151.299C138.412 151.429 137.953 151.646 137.516 151.971Z" fill="#1E1E1E"/>
<path d="M131.046 154.983L136.38 163.999L133.079 165.928C132.467 166.275 131.855 166.492 131.265 166.535C130.675 166.578 130.106 166.47 129.603 166.21C129.101 165.928 128.664 165.516 128.314 164.91C127.964 164.324 127.811 163.761 127.833 163.176C127.855 162.612 128.03 162.07 128.357 161.572C128.685 161.073 129.166 160.64 129.778 160.293L131.636 159.21L129.625 155.829L131.046 154.983ZM132.358 160.488L130.456 161.594C130.128 161.789 129.888 162.005 129.713 162.287C129.538 162.569 129.472 162.851 129.472 163.154C129.472 163.457 129.56 163.761 129.756 164.086C129.953 164.411 130.172 164.628 130.434 164.779C130.696 164.931 131.002 164.996 131.33 164.996C131.658 164.975 131.964 164.888 132.292 164.693L134.194 163.587L132.358 160.488Z" fill="#1E1E1E"/>
<path d="M123.418 159.405L127.506 169.049L126.063 169.656L120.27 166.167L120.992 165.863L119.527 172.387L118.084 172.994L113.997 163.349L115.527 162.721L118.849 170.544L118.215 170.631L119.789 164.151L119.942 164.086L125.626 167.554L125.189 167.922L121.866 160.098L123.418 159.405Z" fill="#1E1E1E"/>
<path d="M112.225 163.804L115.045 173.882L108.356 175.724L107.963 174.294L113.034 172.907L112.225 170.003L107.416 171.325L107.023 169.894L111.832 168.572L111.023 165.646L105.952 167.033L105.558 165.603L112.225 163.804Z" fill="#1E1E1E"/>
<path d="M104.291 165.928L105.887 176.266L104.553 176.461L97.4707 169.352L98.1047 169.157L99.3725 177.263L97.7112 177.523L96.1155 167.185L97.4489 166.99L104.509 174.164L103.919 174.359L102.651 166.21L104.291 165.928Z" fill="#1E1E1E"/>
<path d="M92.3335 167.359L92.727 176.331L95.5031 176.223L95.5687 177.697L88.3551 178L88.2896 176.526L91.0438 176.418L90.6504 167.445L92.3335 167.359Z" fill="#1E1E1E"/>
<path d="M63.2823 163.674L59.4788 173.427L56.2655 172.192C55.2381 171.801 54.4293 171.26 53.8391 170.544C53.2489 169.851 52.8773 169.049 52.768 168.16C52.6369 167.272 52.768 166.34 53.1396 165.386C53.5113 164.433 54.0577 163.652 54.7572 163.089C55.4567 162.504 56.2655 162.157 57.1836 162.049C58.1017 161.919 59.0635 162.07 60.0909 162.46L63.2823 163.674ZM61.1838 164.454L59.5007 163.804C58.8012 163.544 58.1454 163.457 57.5334 163.544C56.8994 163.631 56.353 163.891 55.8721 164.303C55.3911 164.714 54.9977 165.278 54.7135 165.993C54.4293 166.708 54.3419 167.38 54.4075 168.009C54.4949 168.637 54.7135 169.201 55.1288 169.678C55.5223 170.154 56.0688 170.544 56.7683 170.805L58.4514 171.455L61.1838 164.454Z" fill="#1E1E1E"/>
<path d="M55.0413 160.51L46.8004 168.009L44.9861 167.055L46.6692 156.089L48.265 156.934L47.8496 159.383L51.6313 161.377L53.4675 159.686L55.0413 160.51ZM50.5165 162.439L47.6092 160.9L46.6692 166.6L46.2539 166.383L50.5165 162.439Z" fill="#1E1E1E"/>
<path d="M43.0626 153.379C43.6091 153.748 44.0462 154.203 44.3741 154.723C44.702 155.243 44.8987 155.785 44.9862 156.37C45.0736 156.956 45.0299 157.519 44.855 158.083L43.3467 157.779C43.4998 157.107 43.4779 156.479 43.2812 155.915C43.0844 155.352 42.7128 154.897 42.1882 154.528C41.8822 154.311 41.5761 154.181 41.2701 154.116C40.9641 154.051 40.7018 154.073 40.4395 154.16C40.1771 154.246 39.9804 154.42 39.8274 154.637C39.6088 154.94 39.5214 155.243 39.587 155.568C39.6307 155.872 39.7837 156.197 40.0679 156.544L41.3575 158.169C41.8603 158.819 42.1445 159.47 42.2101 160.12C42.2538 160.77 42.1008 161.377 41.7073 161.919C41.3794 162.395 40.9641 162.742 40.4613 162.937C39.9586 163.154 39.4339 163.197 38.8656 163.132C38.2973 163.046 37.7289 162.829 37.1824 162.439C36.6578 162.092 36.2425 161.659 35.9583 161.203C35.6523 160.727 35.4555 160.228 35.39 159.708C35.3025 159.188 35.3463 158.668 35.4774 158.148L36.9638 158.451C36.8327 159.036 36.8545 159.556 37.0513 160.055C37.248 160.532 37.5759 160.943 38.0349 161.268C38.3191 161.463 38.6033 161.594 38.8875 161.637C39.1716 161.68 39.4339 161.659 39.6744 161.572C39.9148 161.485 40.1334 161.312 40.2864 161.073C40.4832 160.792 40.5706 160.488 40.5269 160.141C40.505 159.795 40.352 159.448 40.0679 159.101L38.8656 157.584C38.3191 156.912 38.0131 156.24 37.9256 155.612C37.8382 154.983 38.0131 154.376 38.4065 153.813C38.7344 153.336 39.1498 152.989 39.6744 152.794C40.1771 152.599 40.7236 152.534 41.3138 152.643C41.904 152.729 42.4724 152.989 43.0626 153.379Z" fill="#1E1E1E"/>
<path d="M38.7565 150.54L31.7834 158.386L30.5375 157.281L33.6196 153.835L29.9691 150.649L26.8651 154.095L25.6191 152.989L32.5922 145.144L33.8382 146.249L30.9309 149.522L34.5814 152.708L37.4887 149.435L38.7565 150.54Z" fill="#1E1E1E"/>
<path d="M31.2806 143.822L23.3894 150.757L20.4384 147.463C20.0012 146.964 19.717 146.466 19.564 145.967C19.411 145.447 19.4328 144.97 19.564 144.494C19.6952 144.017 20.0012 143.605 20.4602 143.215C20.8318 142.89 21.269 142.673 21.7499 142.586C22.2308 142.5 22.7554 142.586 23.3019 142.825L22.7554 143.302C22.5806 142.825 22.4931 142.37 22.515 141.958C22.5369 141.546 22.6243 141.178 22.7992 140.831C22.974 140.484 23.2145 140.202 23.5205 139.942C24.2637 139.292 25.0507 139.01 25.9032 139.119C26.7557 139.227 27.5645 139.704 28.3077 140.549L31.2806 143.822ZM25.4223 146.748L23.5642 144.667C23.2582 144.32 22.9303 144.147 22.5587 144.103C22.1871 144.06 21.8374 144.19 21.5313 144.472C21.2034 144.754 21.0504 145.079 21.0723 145.426C21.0723 145.794 21.2253 146.141 21.5313 146.466L23.3894 148.546L25.4223 146.748ZM29.0509 143.562L27.1273 141.416C26.7557 141.004 26.3404 140.766 25.9032 140.722C25.4441 140.679 25.0288 140.809 24.6572 141.156C24.2856 141.503 24.0889 141.893 24.067 142.348C24.067 142.803 24.2419 143.237 24.6135 143.648L26.5371 145.794L29.0509 143.562Z" fill="#1E1E1E"/>
<path d="M22.3185 132.465C22.7338 133.094 23.018 133.765 23.171 134.459C23.3021 135.153 23.324 135.846 23.171 136.518C23.0398 137.19 22.7775 137.818 22.384 138.425C21.9906 139.01 21.466 139.53 20.8102 139.964C20.1544 140.397 19.4768 140.679 18.7773 140.809C18.0778 140.939 17.3783 140.939 16.7006 140.809C16.023 140.679 15.3891 140.397 14.7989 140.007C14.2087 139.617 13.7059 139.097 13.2687 138.468C12.8316 137.84 12.5474 137.168 12.4162 136.475C12.2851 135.781 12.2851 135.109 12.3944 134.416C12.5255 133.744 12.7878 133.115 13.1813 132.508C13.5748 131.923 14.0994 131.403 14.7552 130.97C15.4109 130.536 16.0886 130.254 16.7881 130.124C17.4876 129.994 18.1871 129.994 18.8647 130.124C19.5423 130.254 20.1763 130.515 20.7883 130.926C21.3785 131.316 21.8813 131.837 22.3185 132.465ZM21.0506 133.31C20.7446 132.855 20.3949 132.508 19.9577 132.227C19.5423 131.967 19.0833 131.772 18.6024 131.707C18.1215 131.62 17.6187 131.642 17.1378 131.75C16.6351 131.858 16.1542 132.075 15.6951 132.378C15.2361 132.682 14.8645 133.029 14.5803 133.462C14.2961 133.874 14.0775 134.329 13.9682 134.806C13.8589 135.283 13.8589 135.759 13.9464 136.258C14.0338 136.735 14.2305 137.211 14.5366 137.667C14.8426 138.122 15.1924 138.468 15.6077 138.75C16.023 139.01 16.482 139.205 16.963 139.27C17.4439 139.357 17.9466 139.335 18.4494 139.227C18.9521 139.119 19.433 138.902 19.8702 138.599C20.3293 138.295 20.7227 137.927 21.0069 137.515C21.2911 137.103 21.5097 136.648 21.5971 136.171C21.7064 135.694 21.7064 135.218 21.619 134.719C21.5315 134.221 21.3348 133.744 21.0506 133.31Z" fill="#1E1E1E"/>
<path d="M19.0831 127.892L7.97864 129.214L7.06055 127.372L14.8862 119.44L15.6731 121.043L13.9025 122.777L15.8042 126.592L18.2962 126.288L19.0831 127.892ZM14.2741 126.83L12.8095 123.904L8.67813 127.979L8.4814 127.567L14.2741 126.83Z" fill="#1E1E1E"/>
<path d="M14.5801 118.551L4.63412 122.04L3.34442 118.464C3.10397 117.793 3.01654 117.186 3.08211 116.579C3.14769 115.994 3.36628 115.474 3.71603 115.018C4.08764 114.563 4.5904 114.238 5.24618 114C5.94567 113.761 6.57959 113.718 7.19165 113.891C7.80371 114.065 8.30647 114.39 8.74366 114.888L11.9351 111.204L12.569 112.981L9.09341 116.926L9.33386 115.69L10.2738 118.291L14.0117 116.969L14.5801 118.551ZM8.89667 118.789L8.15346 116.731C8.0223 116.384 7.84743 116.102 7.60698 115.885C7.36653 115.669 7.10421 115.539 6.79819 115.474C6.49216 115.409 6.16427 115.452 5.83638 115.56C5.48663 115.69 5.22432 115.864 5.00573 116.102C4.80899 116.34 4.67784 116.622 4.63412 116.926C4.5904 117.251 4.63412 117.576 4.74342 117.923L5.48663 119.981L8.89667 118.789Z" fill="#1E1E1E"/>
<path d="M11.6511 110.142L1.35538 112.418L0.612164 109.08C0.371712 108.018 0.393572 107.043 0.634023 106.176C0.896334 105.309 1.35538 104.55 2.03302 103.965C2.71065 103.358 3.56316 102.947 4.56869 102.73C5.57421 102.513 6.53602 102.513 7.41039 102.773C8.28476 103.033 9.02798 103.51 9.64003 104.182C10.2521 104.875 10.6674 105.742 10.9079 106.804L11.6511 110.142ZM9.83677 108.842L9.4433 107.086C9.29029 106.371 8.98426 105.764 8.56893 105.309C8.15361 104.854 7.62898 104.529 7.01692 104.355C6.40486 104.182 5.70537 104.182 4.96215 104.355C4.19708 104.529 3.58502 104.81 3.10412 105.222C2.62321 105.634 2.29533 106.132 2.09859 106.739C1.92372 107.346 1.90186 107.996 2.05487 108.712L2.44834 110.467L9.83677 108.842Z" fill="#1E1E1E"/>
<path d="M9.57435 77.4158L0 71.6725L0.415326 69.6569L11.498 68.2048L11.1264 69.9603L8.65626 70.2421L7.78189 74.4033L9.9241 75.682L9.57435 77.4158ZM6.42662 73.6447L7.10426 70.4372L1.31155 71.1307L1.39899 70.6756L6.42662 73.6447Z" fill="#1E1E1E"/>
<path d="M11.8261 67.3162L1.83643 63.9786L3.06054 60.3809C3.27914 59.709 3.60702 59.1672 4.02235 58.7338C4.43768 58.3003 4.94044 58.0185 5.50878 57.8885C6.07712 57.7585 6.68918 57.8018 7.34496 58.0185C7.97887 58.2353 8.5035 58.5604 8.85324 58.9938C9.22485 59.4273 9.44344 59.9474 9.53088 60.5326C9.61832 61.1178 9.53088 61.7463 9.31229 62.4182L8.63465 64.4554L12.3944 65.7124L11.8261 67.3162ZM7.19194 64.0219L7.89144 61.9413C8.00073 61.5946 8.04445 61.2478 8.00073 60.9444C7.95701 60.641 7.82586 60.3592 7.60727 60.1208C7.38867 59.8824 7.12636 59.709 6.79848 59.6007C6.44873 59.4923 6.12084 59.449 5.81481 59.514C5.50878 59.579 5.24647 59.709 5.00602 59.9258C4.76557 60.1425 4.59069 60.4242 4.48139 60.7927L3.7819 62.8733L7.19194 64.0219Z" fill="#1E1E1E"/>
<path d="M14.7549 58.9938L5.20239 54.5725L6.81998 51.1265C7.12601 50.498 7.49761 49.9779 7.95666 49.6094C8.4157 49.2193 8.94032 49.0026 9.50866 48.9376C10.077 48.8726 10.6891 48.9809 11.3011 49.2843C11.9132 49.5661 12.3941 49.9562 12.7001 50.433C13.0061 50.9098 13.181 51.4516 13.2029 52.0368C13.2247 52.622 13.0717 53.2505 12.7657 53.879L11.8476 55.8296L15.4325 57.4984L14.7549 58.9938ZM10.5142 55.2227L11.4541 53.2288C11.6072 52.882 11.6946 52.557 11.6727 52.2535C11.6509 51.9284 11.5634 51.6467 11.3886 51.4083C11.2137 51.1482 10.9514 50.9532 10.6235 50.8014C10.2956 50.6497 9.96771 50.5847 9.66168 50.6064C9.35565 50.6281 9.07148 50.7364 8.80917 50.9315C8.54686 51.1265 8.35012 51.3866 8.17525 51.7334L7.2353 53.7273L10.5142 55.2227Z" fill="#1E1E1E"/>
<path d="M18.6242 51.0615L9.57446 45.6866L10.427 44.2562L18.2089 48.8725L20.5478 45.0148L21.8156 45.7733L18.6242 51.0615Z" fill="#1E1E1E"/>
<path d="M22.5589 44.798L13.9026 38.8163L14.8644 37.4509L23.5207 43.4326L22.5589 44.798Z" fill="#1E1E1E"/>
<path d="M27.8706 38.1878C27.3897 38.7513 26.8432 39.2064 26.2093 39.5098C25.5972 39.8133 24.9414 39.9866 24.2638 40.03C23.5861 40.0733 22.9085 39.9866 22.2309 39.7699C21.5532 39.5532 20.9193 39.1847 20.3073 38.6646C19.7171 38.1661 19.2362 37.6026 18.8864 36.9741C18.5367 36.3456 18.3399 35.7171 18.2743 35.0452C18.2088 34.3734 18.2743 33.7232 18.4711 33.073C18.6678 32.4228 19.0176 31.7943 19.4985 31.2308C19.9794 30.6673 20.504 30.2555 21.0723 29.9521C21.6407 29.6487 22.2309 29.4969 22.7992 29.4536C23.3676 29.4102 23.914 29.4753 24.3949 29.6487L23.9578 31.2308C23.3894 31.0357 22.8211 31.014 22.2309 31.1658C21.6407 31.3175 21.116 31.6642 20.6789 32.1844C20.2198 32.7045 19.9575 33.2897 19.8701 33.9182C19.7826 34.5467 19.8482 35.1536 20.1105 35.7387C20.3728 36.3456 20.7882 36.8874 21.3784 37.3859C21.9686 37.8844 22.6025 38.2095 23.2364 38.3612C23.8703 38.5129 24.5042 38.4912 25.0944 38.2962C25.6846 38.1011 26.2093 37.7327 26.6683 37.1908C27.1273 36.6707 27.3678 36.1072 27.4115 35.5003C27.4552 34.8935 27.3459 34.33 27.0399 33.8099L28.5482 33.1163C28.7886 33.5498 28.9417 34.0483 29.0072 34.6334C29.0728 35.1969 29.0072 35.8038 28.8105 36.4106C28.6794 37.0391 28.3515 37.6243 27.8706 38.1878Z" fill="#1E1E1E"/>
<path d="M30.8872 34.4167L26.4717 24.2304L28.0018 22.8433L37.8822 28.0448L36.5707 29.2585L34.3847 28.0665L31.237 30.949L32.2425 33.2247L30.8872 34.4167ZM30.5594 29.5403L32.9857 27.3296L27.8707 24.5555L28.2204 24.2521L30.5594 29.5403Z" fill="#1E1E1E"/>
<path d="M39.6307 26.8312L34.1659 19.6574L31.9363 21.3262L31.04 20.1559L36.8109 15.8213L37.7071 16.9917L35.4993 18.6388L40.9641 25.8125L39.6307 26.8312Z" fill="#1E1E1E"/>
<path d="M44.1119 23.6452L38.3411 14.8894L39.7401 13.9791L45.5109 22.735L44.1119 23.6452Z" fill="#1E1E1E"/>
<path d="M51.6973 19.3973C51.0197 19.7441 50.3202 19.9608 49.6207 20.0042C48.8993 20.0692 48.2217 19.9825 47.5659 19.7875C46.9101 19.5707 46.2981 19.2456 45.7516 18.7905C45.2051 18.3354 44.746 17.7719 44.3744 17.0783C44.0028 16.3848 43.8061 15.6913 43.7405 14.9761C43.6749 14.2609 43.7624 13.589 43.9591 12.9388C44.1777 12.2886 44.5056 11.6818 44.9646 11.1399C45.4237 10.5981 45.992 10.1647 46.6915 9.79622C47.3692 9.44946 48.0687 9.23273 48.79 9.16771C49.4895 9.10269 50.189 9.18938 50.8448 9.38444C51.5006 9.57949 52.1126 9.90459 52.6591 10.3814C53.2056 10.8365 53.6646 11.4217 54.0144 12.0936C54.3641 12.7654 54.5827 13.4806 54.6483 14.1958C54.7139 14.911 54.6264 15.5829 54.4297 16.2331C54.2111 16.8833 53.8832 17.4901 53.4242 18.0319C52.9433 18.5954 52.3749 19.0506 51.6973 19.3973ZM50.9978 18.0536C51.4787 17.7935 51.894 17.4901 52.2001 17.1C52.5061 16.7099 52.7465 16.2981 52.8777 15.8213C53.0088 15.3445 53.0526 14.8677 53.0088 14.3692C52.9651 13.8707 52.7903 13.3723 52.5498 12.8738C52.2875 12.397 51.9815 11.9852 51.588 11.6384C51.1945 11.3133 50.7792 11.0533 50.3202 10.9015C49.8611 10.7498 49.3802 10.6848 48.8774 10.7282C48.3747 10.7715 47.8938 10.9015 47.4129 11.1616C46.932 11.4217 46.5166 11.7251 46.2106 12.1152C45.8827 12.5053 45.6641 12.9171 45.533 13.3939C45.4018 13.8707 45.3581 14.3475 45.4018 14.846C45.4674 15.3445 45.6204 15.843 45.8609 16.3198C46.1232 16.8183 46.4292 17.23 46.8227 17.5551C47.2161 17.8802 47.6315 18.1403 48.0905 18.292C48.5496 18.4437 49.0305 18.5087 49.5332 18.4654C50.036 18.4221 50.5169 18.292 50.9978 18.0536Z" fill="#1E1E1E"/>
<path d="M57.8832 16.2331L54.3857 6.3719L55.6536 5.93844L63.9382 11.6384L63.348 11.9418L60.6156 4.2046L62.1895 3.66278L65.687 13.524L64.4191 13.9574L56.1782 8.19243L56.7247 7.88901L59.4571 15.6913L57.8832 16.2331Z" fill="#1E1E1E"/>
</svg>
